HIERARCHY
ROOT Hips
{
	OFFSET 0.000000 0.000000 0.000000
	CHANNELS 6 Xposition Yposition Zposition Xrotation Yrotation Zrotation
	JOINT LeftUpLeg_virtual
	{
		OFFSET 0.000000 0.000000 0.000000
		CHANNELS 3 Xrotation Yrotation Zrotation
		JOINT LeftUpLeg
		{
			OFFSET 11.394100 -6.187798 -0.413800
			CHANNELS 3 Xrotation Yrotation Zrotation
			JOINT LeftLeg
			{
				OFFSET 0.430247 -32.302673 3.732800
				CHANNELS 3 Xrotation Yrotation Zrotation
				JOINT LeftFoot
				{
					OFFSET -0.430247 -48.264931 -6.423300
					CHANNELS 3 Xrotation Yrotation Zrotation
					JOINT LeftToeBase
					{
						OFFSET 4.230900 -16.068199 23.438400
						CHANNELS 3 Xrotation Yrotation Zrotation
						JOINT LeftToe_End
						{
							OFFSET 4.510700 0.695400 19.974600
							CHANNELS 3 Xrotation Yrotation Zrotation
							End Site
							{
								OFFSET 0 0 0
							}
						}
					}
				}
			}
		}
	}
	JOINT RightUpLeg_virtual
	{
		OFFSET 0.000000 0.000000 0.000000
		CHANNELS 3 Xrotation Yrotation Zrotation
		JOINT RightUpLeg
		{
			OFFSET -11.333700 -6.187798 -0.413800
			CHANNELS 3 Xrotation Yrotation Zrotation
			JOINT RightLeg
			{
				OFFSET -0.430392 -32.302628 3.733000
				CHANNELS 3 Xrotation Yrotation Zrotation
				JOINT RightFoot
				{
					OFFSET 0.430392 -48.264973 -6.423500
					CHANNELS 3 Xrotation Yrotation Zrotation
					JOINT RightToeBase
					{
						OFFSET -4.230900 -16.068199 23.438400
						CHANNELS 3 Xrotation Yrotation Zrotation
						JOINT RightToe_End
						{
							OFFSET -4.510700 0.695400 19.974600
							CHANNELS 3 Xrotation Yrotation Zrotation
							End Site
							{
								OFFSET 0 0 0
							}
						}
					}
				}
			}
		}
	}
	JOINT Spine_virtual
	{
		OFFSET 0.000000 0.000000 0.000000
		CHANNELS 3 Xrotation Yrotation Zrotation
		JOINT Spine
		{
			OFFSET -0.002400 12.777504 0.315300
			CHANNELS 3 Xrotation Yrotation Zrotation
			JOINT Spine1
			{
				OFFSET -0.002067 5.816869 0.032633
				CHANNELS 3 Xrotation Yrotation Zrotation
				JOINT Spine1_split
				{
					OFFSET -0.002067 5.816869 0.032633
					CHANNELS 3 Xrotation Yrotation Zrotation
					JOINT Spine2
					{
						OFFSET -0.002067 5.816869 0.032633
						CHANNELS 3 Xrotation Yrotation Zrotation
						JOINT Neck_virtual
						{
							OFFSET 0.000000 0.000000 0.000000
							CHANNELS 3 Xrotation Yrotation Zrotation
							JOINT Neck
							{
								OFFSET -0.003700 21.199493 -0.826900
								CHANNELS 3 Xrotation Yrotation Zrotation
								JOINT Head
								{
									OFFSET 0.000000 20.442200 4.834800
									CHANNELS 3 Xrotation Yrotation Zrotation
									JOINT HeadTop_End
									{
										OFFSET 0.000000 34.668396 4.968400
										CHANNELS 3 Xrotation Yrotation Zrotation
										End Site
										{
											OFFSET 0 0 0
										}
									}
								}
							}
						}
						JOINT LeftShoulder_virtual
						{
							OFFSET 0.000000 0.000000 0.000000
							CHANNELS 3 Xrotation Yrotation Zrotation
							JOINT LeftShoulder
							{
								OFFSET 3.288150 8.794197 -1.372250
								CHANNELS 3 Xrotation Yrotation Zrotation
								JOINT LeftShoulder_split
								{
									OFFSET 3.288150 8.794197 -1.372250
									CHANNELS 3 Xrotation Yrotation Zrotation
									JOINT LeftArm
									{
										OFFSET 11.953299 -2.279007 -0.146200
										CHANNELS 3 Xrotation Yrotation Zrotation
										JOINT LeftForeArm
										{
											OFFSET 18.448900 0.000000 0.000000
											CHANNELS 3 Xrotation Yrotation Zrotation
											JOINT LeftHand
											{
												OFFSET 29.527798 0.000000 0.000000
												CHANNELS 3 Xrotation Yrotation Zrotation
												End Site
												{
													OFFSET 0 0 0
												}
											}
										}
									}
								}
							}
						}
						JOINT RightShoulder_virtual
						{
							OFFSET 0.000000 0.000000 0.000000
							CHANNELS 3 Xrotation Yrotation Zrotation
							JOINT RightShoulder
							{
								OFFSET -3.249400 8.794197 -1.372250
								CHANNELS 3 Xrotation Yrotation Zrotation
								JOINT RightShoulder_split
								{
									OFFSET -3.249400 8.794197 -1.372250
									CHANNELS 3 Xrotation Yrotation Zrotation
									JOINT RightArm
									{
										OFFSET -11.953299 -2.279007 -0.146200
										CHANNELS 3 Xrotation Yrotation Zrotation
										JOINT RightForeArm
										{
											OFFSET -18.448900 0.000000 0.000000
											CHANNELS 3 Xrotation Yrotation Zrotation
											JOINT RightHand
											{
												OFFSET -29.527802 0.000000 0.000000
												CHANNELS 3 Xrotation Yrotation Zrotation
												End Site
												{
													OFFSET 0 0 0
												}
											}
										}
									}
								}
							}
						}
					}
				}
			}
		}
	}
}
MOTION
Frames: 9
Frame Time: 0.03333333
-0.284686 82.336830 -2.330200 0.000000 0.000000 0.000000 -15.777720 4.525512 0.443624 -22.482222 -2.303229 13.849533 56.890616 1.390495 1.134204 -20.098158 -0.245429 -12.012793 -1.577368 -0.194920 0.531132 0.000000 0.000000 0.000000 -16.210081 2.875059 0.314022 -19.861350 -3.447996 -14.482578 57.060432 -0.351804 -0.854340 -23.405434 -4.903704 12.223686 0.788035 -0.352032 -1.693655 0.000000 0.000000 0.000000 -15.139227 1.843577 -0.117497 18.827556 0.004463 2.554743 5.812505 -0.021818 -0.208563 2.183233 5.333032 -0.370289 0.000000 0.000000 0.000000 6.030657 -0.179132 0.417777 -11.057603 -1.395767 2.650514 -17.327819 1.935232 -0.737860 0.000000 0.000000 0.000000 7.843210 -0.206983 0.711629 3.577922 -7.918120 -4.742015 -4.958523 -1.121046 -4.187634 -10.600671 -17.677757 -58.543962 70.558012 -61.735799 70.976587 0.000000 0.000000 0.000000 7.505207 -0.090366 -0.097030 10.066712 -5.671084 16.095646 3.729575 2.949172 -0.941563 -27.633274 11.834642 60.463321 89.692787 61.331711 -84.425352 0.000000 0.000000 0.000000 
-0.402544 82.325958 -2.147678 0.000000 0.000000 0.000000 -15.865298 4.623825 0.366060 -22.409144 -2.585475 13.922342 56.792780 1.326047 1.140772 -20.197119 -0.256436 -11.956819 -1.443496 -0.173026 0.528834 0.000000 0.000000 0.000000 -16.299922 3.313997 0.306805 -19.557635 -3.423916 -14.398196 57.242470 -0.301776 -0.866977 -23.655681 -4.859160 12.056874 1.080200 -0.314905 -1.734724 0.000000 0.000000 0.000000 -15.303112 2.210134 -0.171867 18.761985 -0.079635 2.510035 6.002170 0.001178 -0.136322 2.045350 5.433807 -0.130647 0.000000 0.000000 0.000000 6.125014 -0.202996 0.465915 -11.329401 -1.156524 2.214063 -17.488039 2.166959 -0.776783 0.000000 0.000000 0.000000 7.892316 -0.149119 0.789272 3.670031 -7.881338 -4.363924 -4.616162 -1.215643 -4.378542 -12.604111 -18.014363 -60.169083 68.128596 -61.320749 68.677716 0.000000 0.000000 0.000000 7.617851 -0.096129 -0.054948 9.888763 -5.952252 16.140773 3.802920 2.229983 0.681877 -27.185230 10.540652 60.810308 87.362805 62.442156 -82.469432 0.000000 0.000000 0.000000 
-0.532103 82.371513 -1.964981 0.000000 0.000000 0.000000 -16.153293 4.802554 0.339841 -22.227403 -2.907342 13.823620 56.749508 1.247829 1.221152 -20.437246 -0.211258 -11.970660 -1.248488 -0.102460 0.406063 0.000000 0.000000 0.000000 -16.505781 3.764629 0.300343 -18.926379 -3.615138 -14.366306 57.297098 -0.131097 -0.946056 -23.816035 -4.849257 12.151666 0.983861 -0.336748 -1.783994 0.000000 0.000000 0.000000 -15.692911 2.781589 -0.224709 18.887409 -0.267312 2.314745 6.363230 0.098796 -0.002706 1.839906 4.711689 0.036583 0.000000 0.000000 0.000000 6.414979 -0.113575 0.472645 -11.200736 -0.891979 1.339859 -18.023146 2.292618 -0.761691 0.000000 0.000000 0.000000 8.028035 -0.025790 0.874776 3.497217 -8.586403 -4.048577 -4.408814 -1.981658 -3.591835 -12.885133 -17.216115 -60.248108 61.729740 -62.021205 62.586027 0.000000 0.000000 0.000000 7.942432 0.013702 0.068282 9.455926 -6.045699 16.239871 2.375505 1.729990 1.125065 -25.160477 11.300269 59.733829 83.456715 65.796551 -79.573842 0.000000 0.000000 0.000000 
-0.626972 82.513512 -1.826263 0.000000 0.000000 0.000000 -16.592348 5.010249 0.387364 -21.850223 -3.140887 13.507864 56.693405 1.205503 1.377067 -20.724110 -0.114060 -11.980253 -1.093404 -0.005402 0.210467 0.000000 0.000000 0.000000 -16.790881 4.116564 0.322864 -17.998783 -4.015088 -14.397363 57.168506 0.068830 -1.043970 -23.998092 -4.915513 12.290684 0.681821 -0.412460 -1.788173 0.000000 0.000000 0.000000 -16.214777 3.293694 -0.221956 19.136211 -0.548944 2.022990 6.811091 0.227348 0.122671 1.410600 3.413347 0.648041 0.000000 0.000000 0.000000 6.848080 0.003350 0.439148 -10.491820 -0.603545 0.199166 -18.659641 2.403024 -0.815953 0.000000 0.000000 0.000000 8.213946 0.088120 0.931485 3.126937 -9.834106 -3.614746 -4.300705 -3.316264 -2.403380 -11.228327 -15.767389 -58.195835 53.457497 -63.993927 54.629455 0.000000 0.000000 0.000000 8.368375 0.141062 0.210365 8.889047 -5.932141 16.090227 0.040589 1.391142 0.808332 -20.941445 13.580233 56.522329 80.170561 71.128907 -77.481932 0.000000 0.000000 0.000000 
-0.662461 82.839943 -1.682682 0.000000 0.000000 0.000000 -17.142325 5.156761 0.537777 -21.200154 -3.209174 12.992703 56.412254 1.232006 1.574591 -20.914278 0.007237 -11.900792 -1.056370 0.087182 0.017495 0.000000 0.000000 0.000000 -17.146982 4.387092 0.430011 -16.883353 -4.591232 -14.462845 56.725660 0.150726 -1.098285 -24.146353 -5.084217 12.203780 0.524977 -0.510112 -1.719364 0.000000 0.000000 0.000000 -16.850490 3.614301 -0.130771 19.379379 -0.935491 1.688912 7.229708 0.294761 0.196131 0.628572 2.166067 1.178381 0.000000 0.000000 0.000000 7.406048 0.026757 0.368441 -8.873989 -0.262241 -0.962605 -19.127086 2.501726 -0.967519 0.000000 0.000000 0.000000 8.422521 0.095758 0.954350 2.670134 -11.302063 -2.870917 -4.375697 -4.068352 -1.791013 -8.044684 -14.325594 -53.785127 44.208020 -67.324335 45.754088 0.000000 0.000000 0.000000 8.826449 0.145067 0.329099 8.261240 -5.682190 15.452717 -1.713982 1.377366 0.099661 -14.318164 16.045789 50.901920 77.273113 77.723864 -75.457881 0.000000 0.000000 0.000000 
-0.637643 83.449654 -1.606800 0.000000 0.000000 0.000000 -17.670555 5.217498 0.784372 -20.267425 -3.145744 12.351735 55.770523 1.300235 1.796762 -20.838731 0.088908 -11.746739 -1.144626 0.147233 -0.126516 0.000000 0.000000 0.000000 -17.487344 4.595546 0.637807 -15.750374 -5.237781 -14.522167 55.882186 0.085481 -1.077872 -24.126540 -5.306416 11.892087 0.575860 -0.582951 -1.590347 0.000000 0.000000 0.000000 -17.500712 3.697328 0.068758 19.486683 -1.397210 1.373373 7.538267 0.202657 0.209334 -0.268280 1.395042 1.096509 0.000000 0.000000 0.000000 8.038381 -0.093891 0.293237 -6.065489 0.067793 -1.892736 -19.216715 2.545684 -1.263032 0.000000 0.000000 0.000000 8.613167 -0.064246 0.952383 2.284939 -12.717299 -1.719375 -4.128601 -4.218952 -1.843640 -3.978087 -13.024865 -46.963991 33.507378 -71.779209 35.454276 0.000000 0.000000 0.000000 9.201364 -0.035853 0.413948 7.600308 -5.194554 14.105690 -2.808359 1.575336 -0.353933 -6.270532 16.812577 43.178024 65.376371 84.354680 -63.863444 0.000000 0.000000 0.000000 
-0.568707 84.286774 -1.624748 0.000000 0.000000 0.000000 -18.145344 5.179875 1.072683 -19.181517 -3.008105 11.738104 54.739417 1.366301 2.016528 -20.388519 0.109157 -11.585270 -1.288724 0.162152 -0.202485 0.000000 0.000000 0.000000 -17.765322 4.806618 0.931222 -14.672346 -5.840806 -14.583164 54.607663 -0.053117 -1.020790 -23.806891 -5.491285 11.611304 0.563520 -0.585736 -1.501334 0.000000 0.000000 0.000000 -18.123560 3.698033 0.348649 19.411264 -1.911954 1.083280 7.801007 -0.061465 0.162071 -0.761683 1.446533 0.834037 0.000000 0.000000 0.000000 8.646740 -0.391975 0.265845 -1.954053 0.326748 -2.444978 -18.880489 2.549268 -1.612237 0.000000 0.000000 0.000000 8.822355 -0.373033 0.906400 2.146458 -13.913994 -0.086485 -3.602408 -4.567163 -2.252906 0.951007 -11.385755 -38.031446 19.681023 -76.168863 21.852808 0.000000 0.000000 0.000000 9.374317 -0.392321 0.500835 6.909212 -4.330149 12.202543 -3.390111 1.910119 -0.374607 0.583299 15.063012 34.823805 -23.383231 86.698200 24.993812 0.000000 0.000000 0.000000 
-0.451196 85.212471 -1.696434 0.000000 0.000000 0.000000 -18.521108 5.173237 1.323092 -18.128128 -2.911838 11.289389 53.441907 1.369207 2.191828 -19.668288 0.051915 -11.471275 -1.405795 0.139040 -0.219256 0.000000 0.000000 0.000000 -17.957131 5.014894 1.204773 -13.748453 -6.265088 -14.613383 53.003320 -0.187828 -0.984131 -23.174110 -5.573671 11.583148 0.335079 -0.503731 -1.534261 0.000000 0.000000 0.000000 -18.631117 3.764443 0.571736 19.228449 -2.416576 0.831509 8.090350 -0.443229 0.099806 -0.590930 1.812377 0.514317 0.000000 0.000000 0.000000 9.104514 -0.800931 0.329478 3.319829 0.481305 -2.602245 -18.150637 2.473895 -1.965729 0.000000 0.000000 0.000000 9.057073 -0.776373 0.821310 2.260627 -14.739338 1.765828 -3.165713 -5.005443 -2.403193 5.498056 -8.610058 -28.311662 2.346740 -78.864171 4.435561 0.000000 0.000000 0.000000 9.364145 -0.801826 0.597753 6.202336 -3.252892 10.062344 -3.263456 2.222963 -0.156334 2.973765 11.591599 27.237572 -59.337603 82.086634 61.142276 0.000000 0.000000 0.000000 
-0.265148 85.975822 -1.943409 0.000000 0.000000 0.000000 -18.722223 5.243276 1.449755 -17.403611 -2.945185 11.063821 52.246169 1.297432 2.298130 -18.915574 -0.071727 -11.434620 -1.458030 0.087856 -0.200116 0.000000 0.000000 0.000000 -18.057036 5.235058 1.350769 -13.092826 -6.451378 -14.586494 51.427667 -0.270226 -0.998629 -22.526488 -5.532268 11.854591 -0.057516 -0.343963 -1.654921 0.000000 0.000000 0.000000 -18.894523 3.880461 0.603948 19.119158 -2.790009 0.662059 8.545732 -0.815238 0.108669 -0.023186 2.143267 0.355028 0.000000 0.000000 0.000000 9.419773 -1.185864 0.510632 9.393528 0.532250 -2.511930 -17.035146 2.308350 -2.259528 0.000000 0.000000 0.000000 9.427644 -1.136052 0.743012 2.493291 -15.023686 3.467747 -2.776027 -5.212459 -2.246892 6.998989 -4.865804 -19.499104 -13.177901 -80.272659 -11.415004 0.000000 0.000000 0.000000 9.322334 -1.119717 0.707696 5.514453 -2.224309 8.147448 -2.700046 2.063617 -0.226273 -0.877797 8.509646 21.168686 -72.017398 78.393879 73.889874 0.000000 0.000000 0.000000 
